<?xml version="1.0" encoding="utf-8"?>
<!-- Generator: Adobe Illustrator 20.0.0, SVG Export Plug-In . SVG Version: 6.00 Build 0)  -->
<svg version="1.1" id="Layer_1" xmlns="http://www.w3.org/2000/svg" xmlns:xlink="http://www.w3.org/1999/xlink" x="0px" y="0px"
	 viewBox="0 0 1260 720" style="enable-background:new 0 0 1260 720;" xml:space="preserve">
<style type="text/css">
	.st0{fill:#f5f5f5;}
	.st1{clip-path:url(#SVGID_2_);}
	.st2{opacity:0.25;}
	.st3{fill:#BFBFBF;}
	.st4{opacity:0.1;}
	.st5{fill:#707072;}
	.st6{fill:none;}
</style>
<g id="Layer_2">
	<rect x="-1.7" y="0.6" class="st0" width="1260.8" height="718.6"/>
</g>
<g>
	<g>
		<g>
			<g>
				<g>
					<defs>
						<rect id="SVGID_1_" x="-1.7" y="0.6" width="1260.8" height="718.6"/>
					</defs>
					<clipPath id="SVGID_2_">
						<use xlink:href="#SVGID_1_"  style="overflow:visible;"/>
					</clipPath>
					<g class="st1">
						<g class="st2">
							<g>
								<polygon class="st3" points="536.2,162.7 535.7,160 711.1,131.4 711.6,134.1 								"/>
							</g>
							<g>
								<path class="st3" d="M606.2,653.6l-15.7-190L397.2,313.5l-71.2,192l-2.6-1L395.9,309l196.2,152.4l357.5-105.8l-4.8,4.2
									L606.2,653.6z M593.3,464l15.2,184l329.6-286L593.3,464z"/>
							</g>
							<g>
								<polygon class="st3" points="1094.6,480.1 943,359.9 944.7,357.7 1096.3,477.9 								"/>
							</g>
							<g>
								<polygon class="st3" points="607.8,898.9 606.8,896.3 1003,747 1090.3,604.5 1092.7,605.9 1004.9,749.2 1004.5,749.4
																	"/>
							</g>
							<g>
								<path class="st3" d="M517.3,1127.2l-147.2-231H606V650.8h2.8v245.6l355.1,52.5l-0.4,2.7l-355.2-52.5L517.3,1127.2z
									 M375.1,899l141.5,222.1L605.3,899H375.1z"/>
							</g>
							<g>
								<polygon class="st3" points="111.9,360.1 111.5,357.4 396.3,309.9 396.8,312.6 								"/>
							</g>
							<g>
								<polygon class="st3" points="373,899.2 372.1,898.9 51.6,776.6 110.6,356.4 112.5,357.6 325,503.5 590.1,461.8 535.1,164.3
									396.1,313.8 296.9,70 220.4,-11 27.6,27.1 51.7,-194.4 54.5,-194.1 30.7,23.6 221.3,-14 299.4,68.7 397,308.7 536.8,158.4
									593.4,464.1 592,464.3 324.3,506.4 323.9,506.1 112.8,361.2 54.7,774.8 372.2,896 606.7,649.4 607.2,649.4 1090.1,603.9
									1094.1,477.9 1315.9,422.7 1210.2,134 989,104.9 944.8,361.6 942.9,359.8 709.9,133.3 709.9,-12.5 712.7,-12.5 712.7,132.1
									942.9,355.9 986.7,101.9 988,102 1212.3,131.5 1319.6,424.7 1096.8,480.1 1092.8,606.5 1091.6,606.6 608,652.1 								"/>
							</g>
							<g>
								<polygon class="st3" points="112.9,359.5 110.5,358 295.7,70.2 28.9,26.7 29.4,24 300.4,68.2 								"/>
							</g>
							<g>
								<path class="st3" d="M516.9,1125.6l-0.5-0.2L185.5,984.6L372,896.3l1.2,2.5l-180.9,85.6L517,1122.6l445.5-173.4l39.9-200.1
									l-395-96.9l-0.2,0.1h-0.1L48.7,778.1l275.7-274.8l283,146L1094.3,478l114-341L944.1,360.4l-0.8-0.4L533.6,161.7l1.4-1.4
									L708-11.1H220.2l-0.4-0.5L51-194.5l195.5-124.9L222.4-13.9h492.3L538.3,161l405.3,196.2l270.5-228.7l-117.6,351.6l-0.6,0.2
									L612.2,650.5l393.5,96.5L965,951.2L516.9,1125.6z M324.9,506.7L57.5,773.3l545.8-123L324.9,506.7z M55.3-194L219.7-15.8
									l23.5-298.3L55.3-194z"/>
							</g>
							<g>
								<polygon class="st3" points="298.3,70.6 297.8,67.9 711.1,-13.9 711.6,-11.1 								"/>
							</g>
						</g>
						<g class="st4">
							<g>
								<polygon class="st3" points="858.5,196.1 861,194.8 946,349.3 943.6,350.6 								"/>
							</g>
							<g>
								<path class="st3" d="M413,423.1l176.1-77.2L668.8,116l-206.6-3.4v-2.8l210.5,3.5l-80.9,233.4l218.6,299.2l-5.6-3.1
									L413,423.1z M589.8,348.6l-170.6,74.8l381.4,213.8L589.8,348.6z"/>
							</g>
							<g>
								<polygon class="st3" points="739.3,822.3 804.2,641.1 806.9,642 742,823.2 								"/>
							</g>
							<g>
								<polygon class="st3" points="179.5,505.3 181.6,503.5 454.5,824.6 619.2,859.2 618.6,861.9 453,827.1 452.7,826.7
									"/>
							</g>
							<g>
								<path class="st3" d="M-68.2,495.8l172-213.5l77.6,220.3l234.3-80.8l0.9,2.6l-234.4,80.8l66.7,349.1l-2.7,0.5l-66.8-349.2
									L-68.2,495.8z M102.8,288L-62.6,493.3l241.1,9.7L102.8,288z"/>
							</g>
							<g>
								<polygon class="st3" points="530.5,-135.3 533,-136.6 672,113.9 669.6,115.3 								"/>
							</g>
							<g>
								<polygon class="st3" points="101.9,286 101.9,285.1 113.2,-54.6 533.7,-137.7 533.1,-135.6 463.8,111 590.8,345
									856.6,195.6 668.2,115 868.3,-58 920.4,-156.1 820.7,-323.7 1040,-374 1040.6,-371.3 825,-321.8 923.6,-156.1 870.4,-56
									673.4,114.2 862.9,195.3 589.7,348.8 589,347.5 460.8,111.3 460.9,110.8 529.8,-134.1 115.9,-52.3 104.7,284.3 417.2,422.2
									417.4,422.6 619.7,858.8 741.3,821.1 866.9,1010.2 1107.8,816.4 1062.7,600.2 803.2,643.3 804.3,640.9 943.8,348.8
									1083,300.8 1083.9,303.4 945.8,351 808,639.7 1064.9,597 1065.2,598.3 1110.8,817.5 866.3,1014.3 740.1,824.4 618.2,862.2
									617.7,861.1 415.1,424.3 								"/>
							</g>
							<g>
								<polygon class="st3" points="531.4,-134.6 532.1,-137.3 867.7,-58.9 821.5,-322.5 824.2,-323 871.2,-55.3 								"/>
							</g>
							<g>
								<path class="st3" d="M-66.8,495v-0.6L-41.3,139l145.6,145.2l-2,1.9L-38.9,145.2l-25,348.8l312,359.1l204.2-28.6l-37.5-400.9
									l-0.1-0.1v-0.1L110.8-56.8l353,167.1l-46.2,312.4l323.7,398.5l362.9-5.7L804.1,642.3l0.1-0.9l54.4-448l1.8,0.8L1081,299.4
									L920.5-156.2l0.3-0.5l119.1-218l183.5,141.5l-299.5,78.1l162,460l-225-107.3L807,640.8l307.3,177.5L740,824.1l-0.4-0.5
									L417.9,427.7L455.3,827L247,856.2L-66.8,495z M460.7,112L118.3-50.2l297,469.5L460.7,112z M1040.8-370.5l-116,212.3
									l292.4-76.2L1040.8-370.5z"/>
							</g>
							<g>
								<polygon class="st3" points="868.2,-56.4 870.6,-57.8 1084.6,301.4 1082.2,302.8 								"/>
							</g>
						</g>
						<g>
							<ellipse class="st5" cx="297.8" cy="69.5" rx="6" ry="6"/>
							<ellipse class="st5" cx="28.9" cy="24" rx="6" ry="6"/>
							<ellipse class="st5" cx="54.8" cy="-194.4" rx="4" ry="4"/>
							<ellipse class="st5" cx="246.2" cy="-314.1" rx="6" ry="6"/>
							<ellipse class="st5" cx="219.4" cy="-13.9" rx="3" ry="2.9"/>
							<ellipse class="st5" cx="396.8" cy="309.9" rx="6" ry="6"/>
							<ellipse class="st6" cx="535.9" cy="163.9" rx="9" ry="8.9"/>
							<ellipse class="st5" cx="712.5" cy="-13.9" rx="4" ry="4"/>
							<ellipse class="st5" cx="711.6" cy="131.4" rx="6" ry="6"/>
							<ellipse class="st5" cx="943" cy="357.1" rx="4" ry="4"/>
							<ellipse class="st5" cx="988.9" cy="103.6" rx="6" ry="6"/>
							<ellipse class="st5" cx="1211.6" cy="131.4" rx="4" ry="4"/>
							<ellipse class="st5" cx="1096.3" cy="477.7" rx="6" ry="6"/>
							<ellipse class="st5" cx="1319.6" cy="424.9" rx="6" ry="6"/>
							<ellipse class="st5" cx="111.5" cy="358.4" rx="10.6" ry="10.5"/>
							<ellipse class="st5" cx="323.9" cy="504.7" rx="4" ry="4"/>
							<ellipse class="st5" cx="54.8" cy="775.5" rx="4" ry="4"/>
							<ellipse class="st5" cx="372.3" cy="897" rx="6" ry="6"/>
							<ellipse class="st5" cx="606.4" cy="650.8" rx="13.6" ry="13.4"/>
							<ellipse class="st5" cx="1001.1" cy="748.3" rx="6" ry="6"/>
							<ellipse class="st5" cx="963.9" cy="950.9" rx="9" ry="8.9"/>
							<ellipse class="st5" cx="516.2" cy="1123.6" rx="6" ry="6"/>
							<ellipse class="st5" cx="188.6" cy="983.2" rx="9" ry="8.9"/>
							<ellipse class="st5" cx="1090.3" cy="604.5" rx="6" ry="6"/>
							<ellipse class="st5" cx="535.9" cy="163.9" rx="8.5" ry="8.4"/>
						</g>
					</g>
				</g>
			</g>
		</g>
	</g>
</g>
</svg>
