<?xml version="1.0" encoding="utf-8"?>
<!-- Generator: Adobe Illustrator 20.0.0, SVG Export Plug-In . SVG Version: 6.00 Build 0)  -->
<svg version="1.1" id="Layer_1" xmlns="http://www.w3.org/2000/svg" xmlns:xlink="http://www.w3.org/1999/xlink" x="0px" y="0px"
	 viewBox="0 0 1920 1080" style="enable-background:new 0 0 1920 1080;" xml:space="preserve">
<style type="text/css">
	.st0{clip-path:url(#SVGID_2_);}
	.st1{opacity:0.25;}
	.st2{fill:#BFBFBF;}
	.st3{opacity:0.1;}
	.st4{fill:#707072;}
	.st5{fill:none;}
</style>
<g>
	<g>
		<g>
			<defs>
				<rect id="SVGID_1_" width="1920" height="1080"/>
			</defs>
			<clipPath id="SVGID_2_">
				<use xlink:href="#SVGID_1_"  style="overflow:visible;"/>
			</clipPath>
			<g class="st0">
				<g id="Line" class="st1">
					<g>
						<polygon class="st2" points="819.1,836.3 818.4,840.4 1085.5,883.4 1086.2,879.3 						"/>
					</g>
					<g>
						<path class="st2" d="M1441.3,540.1l7.3,6.3l-544.4-159L605.5,616.4L495,322.6l4-1.4l108.5,288.4L901.7,384l23.9-285.5
							L1441.3,540.1z M1431.1,536.9L929.2,107L906,383.5L1431.1,536.9z"/>
					</g>
					<g>
						<polygon class="st2" points="1669.4,359.3 1438.5,540 1441.2,543.3 1672.1,362.5 						"/>
					</g>
					<g>
						<polygon class="st2" points="928.2,-270.1 926.7,-266.2 1530,-41.8 1662.8,172.3 1666.5,170.2 1532.9,-45.2 1532.2,-45.5
													"/>
					</g>
					<g>
						<path class="st2" d="M928.8-270.5l541-78.9l0.6,4.1l-540.8,78.9v369.2h-4.3v-368.9H566.1l224.1-347.1L928.8-270.5z
							 M924.3-270.3L789.4-604.1L573.9-270.3H924.3z"/>
					</g>
					<g>
						<polygon class="st2" points="173,539.6 172.3,543.7 606.1,615.1 606.8,611 						"/>
					</g>
					<g>
						<polygon class="st2" points="570.6,-270.6 569.2,-270.1 81.1,-86.3 171,545.3 173.9,543.3 497.5,324.1 901.3,386.8
							817.4,833.9 605.8,609.2 454.7,975.7 338.2,1097.4 44.6,1040.2 81.4,1373 85.6,1372.6 49.4,1045.4 339.7,1101.9 458.5,977.6
							607.2,616.8 820,842.8 906.2,383.3 904.1,383 496.5,319.7 495.8,320.2 174.3,538 85.8,-83.6 569.4,-265.7 926.4,104.8
							927.2,104.8 1662.6,173.2 1668.7,362.5 2006.5,445.5 1845.5,879.5 1508.6,923.1 1441.3,537.4 1438.4,540.1 1083.7,880.5
							1083.7,1099.6 1087.9,1099.6 1087.9,882.2 1438.5,545.9 1505.1,927.8 1507.2,927.5 1848.7,883.3 2012.1,442.6 1672.8,359.3
							1666.7,169.4 1664.9,169.2 928.4,100.8 						"/>
					</g>
					<g>
						<polygon class="st2" points="174.5,540.5 170.9,542.8 453,975.3 46.6,1040.7 47.3,1044.8 460,978.4 						"/>
					</g>
					<g>
						<path class="st2" d="M1471.9-348.9l62,306.9L934.8,103.1l736.7,255.8l1,0.3l179.1,528.5l-412-343.7L822.3,838.9l268.6,262.8
							H341.2l36.6,459.2L80.2,1373.2l257.1-275l0.6-0.7h742.7L817.2,839.8l-2.1-2.1l623.8-298l1.3-0.6L1842.7,875l-173.6-512.4
							L927.6,105l-431,219.4L76.8-88.6l850.3,189.1l0.1-0.1l0.3,0.1L1529-45.1l-60.8-300.8L789.9-606.4L295.4-398.7l275.5,128.7
							l-1.8,3.7l-284-132.6L789-610.6l0.8-0.3L1471.9-348.9z M921.3,103.5L90.2-81.3l407.3,400.7L921.3,103.5z M372.9,1552.9
							l-35.8-448.3L86.8,1372.4L372.9,1552.9z"/>
					</g>
					<g>
						<polygon class="st2" points="456.9,974.8 456.1,978.9 1085.4,1101.7 1086.2,1097.6 						"/>
					</g>
				</g>
				<g id="Lighter_Line" class="st3">
					<g>
						<polygon class="st2" points="1310,786.1 1313.7,788.1 1443.2,555.9 1439.5,553.9 						"/>
					</g>
					<g>
						<path class="st2" d="M1228.3,114.9l8.5-4.7L903.8,559.8l123.2,350.8l-320.5,5.2l-0.1-4.2l314.6-5.1L899.8,561L631.5,445
							L1228.3,114.9z M1221.9,123.2L641,444.6l259.8,112.4L1221.9,123.2z"/>
					</g>
					<g>
						<polygon class="st2" points="1128.5,-155 1227.3,117.4 1231.3,116 1132.5,-156.4 						"/>
					</g>
					<g>
						<polygon class="st2" points="275.9,321.4 279.2,324.1 694.7,-158.5 945.5,-210.5 944.7,-214.5 692.4,-162.2 691.9,-161.7
													"/>
					</g>
					<g>
						<path class="st2" d="M275.8,320.7l101.7-524.8l4.2,0.8L280,321.3l357,121.5l-1.4,3.9L278.8,325.4L160.7,656.5l-261.9-320.9
							L275.8,320.7z M274.5,324.9l-367.2,14.6l251.9,308.6L274.5,324.9z"/>
					</g>
					<g>
						<polygon class="st2" points="810.5,1284.2 814.2,1286.1 1026,909.6 1022.2,907.6 						"/>
					</g>
					<g>
						<polygon class="st2" points="157.8,651 157.8,652.4 175,1162.9 815.3,1287.8 814.4,1284.6 708.8,914 902.3,562.4
							1307.1,786.8 1020.2,908 1324.9,1168 1404.2,1315.4 1252.3,1567.3 1586.3,1642.9 1587.3,1638.9 1258.9,1564.6 1409.1,1315.5
							1328,1165.1 1028,909.2 1316.6,787.3 900.6,556.6 899.6,558.5 704.3,913.5 704.5,914.3 809.3,1282.5 179.1,1159.5
							162.1,653.6 637.9,446.4 638.2,445.6 946.3,-210 1131.4,-153.2 1322.8,-437.4 1689.5,-146.2 1620.9,178.8 1225.6,114
							1227.4,117.5 1439.8,556.6 1651.7,628.7 1653.1,624.8 1442.9,553.3 1233,119.4 1624.2,183.5 1624.6,181.6 1694.2,-147.9
							1321.8,-443.6 1129.6,-158.2 943.9,-215 943.2,-213.4 634.7,443.2 						"/>
					</g>
					<g>
						<polygon class="st2" points="811.8,1283.1 812.8,1287.2 1323.9,1169.4 1253.5,1565.6 1257.7,1566.3 1329.2,1163.9 						"/>
					</g>
					<g>
						<path class="st2" d="M378.7-205.9l317.2,43.8L639,438.1L1128.8-157l0.7-0.8l570,8.8l-467.9,266.8l82,666.2l342.5-161.2
							L1409.4,1314l456.1,117.3L1586.1,1644l-181.3-327.6l-0.4-0.8l244.4-684.9l-336,158.1l-2.7,1.3l-82.9-673.3l-0.2-1.4
							l457.2-260.6l-552.7-8.5l-493,599L708.9,915l-537.5,251.2L634,444.3l0-0.1l0.2-0.2l57.1-602.5l-310.9-42.9L-94.8,338.3
							l38.1,524.3l215.1-211.7l3,2.9L-60.2,872l-38.9-534.3l-0.1-0.9L378.7-205.9z M635,450.7l-452.3,705.6l521.5-243.7L635,450.7z
							 M1856.2,1433.2l-445.3-114.5l176.6,319L1856.2,1433.2z"/>
					</g>
					<g>
						<polygon class="st2" points="1324.7,1165.6 1328.4,1167.7 1654.3,627.8 1650.6,625.7 						"/>
					</g>
				</g>
				<g id="Dots">
					<ellipse class="st4" cx="456.1" cy="976.4" rx="9.2" ry="9"/>
					<ellipse class="st4" cx="46.6" cy="1044.8" rx="9.2" ry="9"/>
					<ellipse class="st4" cx="86" cy="1373" rx="6.1" ry="5.9"/>
					<ellipse class="st4" cx="377.6" cy="1552.9" rx="9.2" ry="9"/>
					<ellipse class="st4" cx="336.7" cy="1101.7" rx="4.5" ry="4.4"/>
					<ellipse class="st4" cx="606.8" cy="615.1" rx="9.2" ry="9"/>
					<ellipse class="st5" cx="818.7" cy="834.5" rx="13.8" ry="13.5"/>
					<ellipse class="st4" cx="1087.5" cy="1101.7" rx="6.1" ry="5.9"/>
					<ellipse class="st4" cx="1086.2" cy="883.4" rx="9.2" ry="9"/>
					<ellipse class="st4" cx="1438.5" cy="544.1" rx="6.1" ry="5.9"/>
					<ellipse class="st4" cx="1508.5" cy="925.2" rx="9.2" ry="9"/>
					<ellipse class="st4" cx="1847.6" cy="883.4" rx="6.1" ry="5.9"/>
					<ellipse class="st4" cx="1672.1" cy="362.8" rx="9.2" ry="9"/>
					<ellipse class="st4" cx="2012.1" cy="442.3" rx="9.2" ry="9"/>
					<ellipse class="st4" cx="172.3" cy="542.2" rx="16.1" ry="15.7"/>
					<ellipse class="st4" cx="495.8" cy="322.4" rx="6.1" ry="5.9"/>
					<ellipse class="st4" cx="86" cy="-84.7" rx="6.1" ry="5.9"/>
					<ellipse class="st4" cx="569.5" cy="-267.3" rx="9.2" ry="9"/>
					<ellipse class="st4" cx="926" cy="102.8" rx="20.7" ry="20.2"/>
					<ellipse class="st4" cx="1527.1" cy="-43.8" rx="9.2" ry="9"/>
					<ellipse class="st4" cx="1470.4" cy="-348.4" rx="13.8" ry="13.5"/>
					<ellipse class="st4" cx="788.6" cy="-607.9" rx="9.2" ry="9"/>
					<ellipse class="st4" cx="289.8" cy="-396.9" rx="13.8" ry="13.5"/>
					<ellipse class="st4" cx="1662.9" cy="172.3" rx="9.2" ry="9"/>
					<ellipse class="st4" cx="818.7" cy="834.5" rx="12.9" ry="12.6"/>
				</g>
			</g>
		</g>
	</g>
</g>
</svg>
