<?xml version="1.0" encoding="utf-8"?>
<!-- Generator: Adobe Illustrator 20.0.0, SVG Export Plug-In . SVG Version: 6.00 Build 0)  -->
<svg version="1.1" id="Layer_1" xmlns="http://www.w3.org/2000/svg" xmlns:xlink="http://www.w3.org/1999/xlink" x="0px" y="0px"
	 viewBox="0 0 100 100" style="enable-background:new 0 0 100 100;" xml:space="preserve">
<g>
	<path d="M78.3,81.1l2.7-2.6c0.8-0.7,0.8-1.9,0-2.7l-31-31l-31,31c-0.8,0.7-0.8,1.9,0,2.7l2.7,2.6c0.7,0.8,1.9,0.8,2.7,0L50,55.5
		l25.6,25.6C76.4,81.9,77.6,81.9,78.3,81.1z"/>
</g>
<g>
	<path d="M78.4,52.7l2.6-2.6c0.8-0.7,0.8-1.9,0-2.7l-31-31l-31,31c-0.8,0.7-0.8,1.9,0,2.7l2.7,2.6c0.7,0.8,1.9,0.8,2.7,0L50,27.1
		l25.6,25.6C76.4,53.5,77.6,53.5,78.4,52.7z"/>
</g>
</svg>
