<?xml version="1.0" encoding="utf-8"?>
<!-- Generator: Adobe Illustrator 20.0.0, SVG Export Plug-In . SVG Version: 6.00 Build 0)  -->
<svg version="1.1" xmlns="http://www.w3.org/2000/svg" xmlns:xlink="http://www.w3.org/1999/xlink" x="0px" y="0px"
	 viewBox="0 0 960 560" style="enable-background:new 0 0 960 560;" xml:space="preserve">
<style type="text/css">
	.st0{display:none;}
	.st1{fill:#EDEDED;stroke:#EDEDED;stroke-miterlimit:10;}
	.st2{fill:#EDEDED;}
</style>
<g id="Layer_2" class="st0">
</g>
<g id="Layer_1">
	<g>
		<path class="st1" d="M-47.5-30.5v624h1056v-624H-47.5z M316,353.5l-49.9-87h32.4v-0.7l17.6,28.7h0l33-57h-49.7h-16.3h-33.5
			l-16.1-27.4l0,0.4h165L316,353.5L316,353.5z M563.5,353.5h-165l82.5-143h0.1l82.5,142.9L563.5,353.5z M712.4,237.5H679h-10.9H613
			l0-0.1l33,57.1h0l0,0l16.7,29.5L646,353.5h-0.1l-82.5-142.9l0-0.1h165L712.4,237.5z"/>
		<polygon class="st2" points="481,266 448,323.1 448,323 514,323 481,266 		"/>
	</g>
</g>
</svg>
